<svg xmlns="http://www.w3.org/2000/svg" xmlns:xlink="http://www.w3.org/1999/xlink" viewBox="0 0 500 500" width="500" height="500" preserveAspectRatio="xMidYMid meet" style="width: 100%; height: 100%; transform: translate3d(0px, 0px, 0px); content-visibility: visible;"><defs><clipPath id="__lottie_element_2"><rect width="500" height="500" x="0" y="0"></rect></clipPath><clipPath id="__lottie_element_4"><path d="M0,0 L2667,0 L2667,1500 L0,1500z"></path></clipPath><clipPath id="__lottie_element_11"><path d="M0,0 L300,0 L300,300 L0,300z"></path></clipPath><clipPath id="__lottie_element_15"><path d="M0,0 L300,0 L300,300 L0,300z"></path></clipPath><clipPath id="__lottie_element_19"><path d="M0,0 L300,0 L300,300 L0,300z"></path></clipPath><clipPath id="__lottie_element_23"><path d="M0,0 L300,0 L300,300 L0,300z"></path></clipPath><clipPath id="__lottie_element_27"><path d="M0,0 L1920,0 L1920,1080 L0,1080z"></path></clipPath><clipPath id="__lottie_element_31"><path d="M0,0 L1920,0 L1920,1080 L0,1080z"></path></clipPath><clipPath id="__lottie_element_38"><path d="M0,0 L1920,0 L1920,1080 L0,1080z"></path></clipPath><clipPath id="__lottie_element_42"><path d="M0,0 L1920,0 L1920,1080 L0,1080z"></path></clipPath><clipPath id="__lottie_element_49"><path d="M0,0 L1920,0 L1920,1080 L0,1080z"></path></clipPath><clipPath id="__lottie_element_53"><path d="M0,0 L1920,0 L1920,1080 L0,1080z"></path></clipPath><clipPath id="__lottie_element_60"><path d="M0,0 L1920,0 L1920,1080 L0,1080z"></path></clipPath><clipPath id="__lottie_element_64"><path d="M0,0 L1920,0 L1920,1080 L0,1080z"></path></clipPath></defs><g clip-path="url(#__lottie_element_2)"><g clip-path="url(#__lottie_element_4)" transform="matrix(0.46000000834465027,0,0,0.46000000834465027,-363.4100341796875,-78)" opacity="1" style="display: block;"><g transform="matrix(1,0,0,1,1333.5,746)" opacity="1" style="display: block;"><g opacity="1" transform="matrix(1,0,0,-0.5723000168800354,1.5759999752044678,144.42999267578125)"><path stroke-linecap="butt" stroke-linejoin="miter" fill-opacity="0" stroke-miterlimit="4" stroke="rgb(0,55,171)" stroke-opacity="1" stroke-width="14" d=" M19.441858291625977,0 C19.441858291625977,0 19.441858291625977,0 19.441858291625977,0 C19.441858291625977,0.5992558598518372 18.95530891418457,1.0858051776885986 18.35605239868164,1.0858051776885986 C18.35605239868164,1.0858051776885986 -18.35605239868164,1.0858051776885986 -18.35605239868164,1.0858051776885986 C-18.95530891418457,1.0858051776885986 -19.441858291625977,0.5992558598518372 -19.441858291625977,0 C-19.441858291625977,0 -19.441858291625977,0 -19.441858291625977,0 C-19.441858291625977,-0.5992558598518372 -18.95530891418457,-1.0858051776885986 -18.35605239868164,-1.0858051776885986 C-18.35605239868164,-1.0858051776885986 18.35605239868164,-1.0858051776885986 18.35605239868164,-1.0858051776885986 C18.95530891418457,-1.0858051776885986 19.441858291625977,-0.5992558598518372 19.441858291625977,0z"></path></g></g><g clip-path="url(#__lottie_element_11)" transform="matrix(1,0,0,0.9999998211860657,1183.5,395.62896728515625)" opacity="1" style="display: block;"><g clip-path="url(#__lottie_element_27)" transform="matrix(0.01512950100004673,-0.9998855590820312,0.9998855590820312,0.01512950100004673,-404.4625244140625,1101.72021484375)" opacity="1" style="display: block;"><g clip-path="url(#__lottie_element_31)" transform="matrix(1,0,0,1,0,0)" opacity="1" style="display: block;"><g transform="matrix(0.32374998927116394,0,0,0.32374998927116394,833.2887573242188,413.38177490234375)" opacity="1" style="display: block;"><g opacity="1" transform="matrix(1,0,0,1,391.3869934082031,391.0979919433594)"><path fill="rgb(0,55,171)" fill-opacity="1" d=" M0,-390.4880065917969 C-215.32400512695312,-390.4880065917969 -390.4880065917969,-215.3040008544922 -390.4880065917969,0 C-390.4880065917969,215.32400512695312 -215.32400512695312,390.4880065917969 0,390.4880065917969 C215.32400512695312,390.4880065917969 390.4880065917969,215.32400512695312 390.4880065917969,0 C390.4880065917969,-215.3040008544922 215.32400512695312,-390.4880065917969 0,-390.4880065917969z M-318.60198974609375,-15.625 C-313.6059875488281,-118.68900299072266 -259.4679870605469,-209.06100463867188 -179.1820068359375,-263.7799987792969 C-179.97999572753906,-251.2760009765625 -179.8249969482422,-238.1020050048828 -176.3769989013672,-224.58900451660156 C-176.375,-224.57899475097656 -175.218994140625,-221.0290069580078 -175.14700317382812,-220.8769989013672 C-175.02099609375,-220.60899353027344 -174.85400390625,-220.28500366210938 -174.718994140625,-220.03799438476562 C-174.718994140625,-220.03799438476562 -173.1179962158203,-217.79400634765625 -173.1179962158203,-217.79400634765625 C-162.96600341796875,-224.79200744628906 -145.2989959716797,-245.75900268554688 -131.44000244140625,-255.55099487304688 C-102.48400115966797,-276.0060119628906 -82.50800323486328,-289.52301025390625 -46.53099822998047,-303.70599365234375 C-33.584999084472656,-308.8089904785156 -7.300000190734863,-315.8630065917969 4.046000003814697,-318.9620056152344 C11.109999656677246,-318.87200927734375 18.121999740600586,-318.5669860839844 25.070999145507812,-318.03399658203125 C71.16600036621094,-304.64300537109375 117.08399963378906,-280.35101318359375 153.5749969482422,-251.36599731445312 C153.5749969482422,-251.36599731445312 176.97500610351562,-231.9929962158203 176.97500610351562,-231.9929962158203 C180.08099365234375,-228.7259979248047 180.46499633789062,-228.01499938964844 183.76100158691406,-225.3679962158203 C183.76100158691406,-225.3679962158203 197.6479949951172,-211.156005859375 197.6479949951172,-211.156005859375 C204.38999938964844,-202.82699584960938 196.1179962158203,-177.468994140625 193.44400024414062,-165.27200317382812 C188.9149932861328,-144.61399841308594 175.38400268554688,-94.37200164794922 166.32400512695312,-81.0479965209961 C163.97799682617188,-71.89199829101562 143.0540008544922,-24.937000274658203 138.41200256347656,-20.423999786376953 C138.41200256347656,-20.423999786376953 -15.529999732971191,-25.020999908447266 -15.529999732971191,-25.020999908447266 C-15.529999732971191,-25.020999908447266 -103.65899658203125,-25.527000427246094 -103.65899658203125,-25.527000427246094 C-95.92900085449219,-7.21999979019165 -87.81800079345703,11.555000305175781 -78.59600067138672,28.493999481201172 C-78.59600067138672,28.493999481201172 -23.215999603271484,129.4759979248047 -23.215999603271484,129.4759979248047 C-13.246999740600586,147.1649932861328 -3.38100004196167,163.00999450683594 7.070000171661377,179.468994140625 C9.581000328063965,182.27000427246094 10.743000030517578,185.78399658203125 13.79699993133545,187.8470001220703 C18.61400032043457,185.26699829101562 40.513999938964844,153.8350067138672 45.965999603271484,146.6269989013672 C50.665000915527344,139.05099487304688 56.28099822998047,131.34500122070312 60.65700149536133,124.61000061035156 C78.16300201416016,97.66500091552734 84.54900360107422,88.19499969482422 101.68599700927734,58.209999084472656 C115.46499633789062,32.20000076293945 128.58399963378906,9.20300006866455 140.96400451660156,-17.218000411987305 C167.9980010986328,-15.991000175476074 194.46499633789062,-14.74899959564209 221.4499969482422,-12.951000213623047 C250.91799926757812,-10.987000465393066 280.5150146484375,-6.96999979019165 309.4169921875,-4.486000061035156 C310.9259948730469,-44.755001068115234 271.42999267578125,-117.96600341796875 247.50999450683594,-153.5019989013672 C244.94400024414062,-157.31399536132812 241.9510040283203,-160.25999450683594 239.3719940185547,-163.69000244140625 C236.7050018310547,-167.23699951171875 234.13800048828125,-170.322998046875 231.6320037841797,-173.08900451660156 C228.38900756835938,-176.66799926757812 226.656005859375,-179.875 224.26600646972656,-182.81500244140625 C220.45199584960938,-187.5070037841797 219.1179962158203,-186.81100463867188 216.76800537109375,-192.90699768066406 C216.76800537109375,-192.90699768066406 211.5749969482422,-196.9530029296875 211.5749969482422,-196.9530029296875 C209.96099853515625,-198.40699768066406 207.8419952392578,-200.23300170898438 206.552001953125,-201.781005859375 C201.78199768066406,-207.50599670410156 205.03199768066406,-212.2010040283203 205.81900024414062,-219.36900329589844 C206.375,-227.20199584960938 206.0590057373047,-236.4810028076172 204.90699768066406,-245.1649932861328 C266.5589904785156,-193.71200561523438 308.4339904785156,-119.08499908447266 317.2959899902344,-33.25299835205078 C317.2919921875,-33.111000061035156 317.2749938964844,-32.99100112915039 317.2699890136719,-32.85100173950195 C318.3420104980469,-22.517000198364258 318.9049987792969,-12.241000175476074 318.9779968261719,-2.049999952316284 C316.1499938964844,-2.5929999351501465 313.24700927734375,-3.0490000247955322 310.3070068359375,-3.434999942779541 C312.6210021972656,8.196999549865723 315.6050109863281,20.360000610351562 317.385986328125,32.07600021362305 C317.1499938964844,34.40999984741211 316.8900146484375,36.737998962402344 316.6029968261719,39.058998107910156 C316.6029968261719,39.058998107910156 316.6109924316406,39.053001403808594 316.6109924316406,39.053001403808594 C316.5920104980469,39.21200180053711 316.5669860839844,39.36899948120117 316.5469970703125,39.52799987792969 C316.2950134277344,41.54800033569336 316.0190124511719,43.5620002746582 315.7279968261719,45.57099914550781 C315.6629943847656,46.01599884033203 315.6000061035156,46.46200180053711 315.53399658203125,46.90800094604492 C315.22698974609375,48.96699905395508 314.89898681640625,51.01900100708008 314.552001953125,53.06700134277344 C314.552001953125,53.06700134277344 314.3609924316406,54.18899917602539 314.3609924316406,54.18899917602539 C313.9909973144531,56.332000732421875 313.5989990234375,58.46699905395508 313.18499755859375,60.59600067138672 C313.18499755859375,60.59600067138672 313.0530090332031,61.268001556396484 313.0530090332031,61.268001556396484 C312.6029968261719,63.555999755859375 312.1310119628906,65.83599853515625 311.6319885253906,68.10800170898438 C311.6319885253906,68.10800170898438 311.6300048828125,68.11900329589844 311.6300048828125,68.11900329589844 C288.0409851074219,175.5919952392578 209.6060028076172,265.17401123046875 104.00199890136719,301.57598876953125 C104.00199890136719,301.57598876953125 97.35199737548828,295.89898681640625 97.35199737548828,295.89898681640625 C70.99099731445312,271.8039855957031 43.79899978637695,231.24099731445312 22.957000732421875,202.98500061035156 C20.53700065612793,199.5399932861328 16.055999755859375,188.54400634765625 12.045999526977539,189.87600708007812 C9.402999877929688,194.17300415039062 8.39799976348877,196.4409942626953 5.120999813079834,199.78900146484375 C5.120999813079834,199.78900146484375 -37.619998931884766,246.2310028076172 -37.619998931884766,246.2310028076172 C-40.395999908447266,248.8800048828125 -41.79600143432617,250.83200073242188 -44.88999938964844,253.6280059814453 C-48.79800033569336,257.1600036621094 -48.99399948120117,257.2760009765625 -52.66999816894531,261.760009765625 C-52.66999816894531,261.760009765625 -73.94300079345703,280.8080139160156 -73.94300079345703,280.8080139160156 C-75.44400024414062,282.22100830078125 -73.7699966430664,280.9159851074219 -75.75399780273438,282.6029968261719 C-77.23400115966797,283.864013671875 -78.20800018310547,284.27398681640625 -80.05599975585938,285.68701171875 C-80.05599975585938,285.68701171875 -102.87999725341797,302.3529968261719 -102.87999725341797,302.3529968261719 C-201.11300659179688,269.2040100097656 -279.6059875488281,189.06399536132812 -307.9410095214844,83.4219970703125 C-307.72900390625,51.222999572753906 -302.3479919433594,19.253000259399414 -293.46099853515625,-16.628999710083008 C-293.46099853515625,-16.628999710083008 -259.010009765625,-20.356000900268555 -259.010009765625,-20.356000900268555 C-256.2850036621094,-19.829999923706055 -110.20899963378906,-24.746000289916992 -106.2760009765625,-25.694000244140625 C-109.99299621582031,-32.055999755859375 -113.53600311279297,-39.35100173950195 -116.447998046875,-46.09299850463867 C-118.78900146484375,-51.513999938964844 -120.78600311279297,-56.11899948120117 -123.125,-61.39799880981445 C-125.43399810791016,-66.61000061035156 -134.61199951171875,-89.0250015258789 -136.39100646972656,-91.30000305175781 C-138.22999572753906,-99.56500244140625 -144.23199462890625,-112.37999725341797 -147.44200134277344,-121.35900115966797 C-156.02499389648438,-145.3699951171875 -171.9530029296875,-192.30499267578125 -173.9290008544922,-215.90499877929688 C-179.45199584960938,-213.73899841308594 -186.85499572753906,-204.9409942626953 -193.82899475097656,-198.30599975585938 C-201.86300659179688,-190.66299438476562 -211.91700744628906,-176.87899780273438 -218.83299255371094,-168.25599670410156 C-218.83299255371094,-168.25599670410156 -231.28900146484375,-152.6649932861328 -231.28900146484375,-152.6649932861328 C-232.88099670410156,-150.23599243164062 -233.05599975585938,-149.91000366210938 -234.7989959716797,-147.61199951171875 C-237.7729949951172,-143.68899536132812 -239.83099365234375,-141.48800659179688 -241.5959930419922,-136.03500366210938 C-253.76600646972656,-127.19999694824219 -284.5329895019531,-53.98500061035156 -290.7550048828125,-34.97100067138672 C-292.364013671875,-30.052000045776367 -293.0580139160156,-24.143999099731445 -295.2850036621094,-19.270000457763672 C-303.3399963378906,-17.81100082397461 -310.947998046875,-16.93000030517578 -318.60198974609375,-15.625z"></path></g></g></g></g></g><g clip-path="url(#__lottie_element_15)" transform="matrix(1,0,0,0.9999998211860657,1183.5,395.62896728515625)" opacity="0" style="display: block;"><g clip-path="url(#__lottie_element_38)" transform="matrix(0.01512950100004673,-0.9998855590820312,0.9998855590820312,0.01512950100004673,-404.4625244140625,1101.72021484375)" opacity="1" style="display: block;"><g clip-path="url(#__lottie_element_42)" transform="matrix(1,0,0,1,0,0)" opacity="1" style="display: block;"><g transform="matrix(0.32374998927116394,0,0,0.32374998927116394,833.2887573242188,413.38177490234375)" opacity="1" style="display: block;"><g opacity="1" transform="matrix(1,0,0,1,370.4779968261719,378.4469909667969)"><path fill="rgb(0,55,171)" fill-opacity="1" d=" M373.6610107421875,179.2030029296875 C424.4230041503906,71.46199798583984 425.4440002441406,-58.04199981689453 365.0790100097656,-171.1750030517578 C263.5920104980469,-361.37701416015625 27.075000762939453,-433.2659912109375 -163.1999969482422,-331.739990234375 C-353.4639892578125,-230.22000122070312 -425.44500732421875,6.276000022888184 -323.9580078125,196.47799682617188 C-238.30299377441406,357.0090026855469 -56.446998596191406,433.2659912109375 112.5989990234375,392.0979919433594 C144.08299255371094,384.54901123046875 175.0989990234375,372.9620056152344 204.96099853515625,357.02899169921875 C281.8489990234375,316.00299072265625 339.31201171875,252.6479949951172 373.6610107421875,179.2030029296875z M333.07000732421875,-87.35199737548828 C226.50599670410156,42.05400085449219 -84.59500122070312,139.79400634765625 -130.81700134277344,151.76600646972656 C-139.30099487304688,132.79100036621094 -146.7270050048828,113.16899871826172 -152.9810028076172,93.24600219726562 C-134.8730010986328,89.01499938964844 -101.97100067138672,76.14900207519531 -64.61699676513672,23.290000915527344 C-21.85099983215332,-32.38600158691406 73.25499725341797,-221.09500122070312 161.9980010986328,-283.2690124511719 C290.2950134277344,-229.4149932861328 327.13800048828125,-105.85800170898438 333.07000732421875,-87.35199737548828z M138.5760040283203,-293.2770080566406 C21.784000396728516,-227.3249969482422 -90.55699920654297,52.409000396728516 -162.22300720214844,60.275001525878906 C-179.22300720214844,-3.7939999103546143 -217.98599243164062,-192.44000244140625 -117.9530029296875,-284.7309875488281 C-34.58399963378906,-323.6260070800781 57.861000061035156,-324.3080139160156 138.5760040283203,-293.2770080566406z M-175.56700134277344,-250.36199951171875 C-242.5500030517578,-139.2259979248047 -214.41000366210938,-2.115000009536743 -198.46400451660156,61.08300018310547 C-239.3070068359375,56.375 -281.4309997558594,11.741999626159668 -304.5639953613281,-30.253000259399414 C-293.0849914550781,-116.08799743652344 -248.02499389648438,-196.41000366210938 -175.56700134277344,-250.36199951171875z M-270.29901123046875,164.54400634765625 C-294.7550048828125,117.73899841308594 -306.7090148925781,67.63500213623047 -307.43701171875,18.05299949645996 C-286.26300048828125,53.29999923706055 -237.04200744628906,93.6709976196289 -188.99600219726562,95.97000122070312 C-182.427001953125,117.677001953125 -174.40699768066406,139.0279998779297 -165.10699462890625,159.63099670410156 C-224.21800231933594,171.8470001220703 -263.4230041503906,165.7030029296875 -270.29901123046875,164.54400634765625z M-253.8000030517578,192.65199279785156 C-253.0260009765625,192.73699951171875 -252.2689971923828,192.8939971923828 -251.5019989013672,192.9709930419922 C-222.62899780273438,196.3419952392578 -188.8769989013672,194.75900268554688 -151.08700561523438,188.27200317382812 C-141.75599670410156,205.85499572753906 -132.21400451660156,222.96400451660156 -121.10800170898438,239.01300048828125 C-120.9990005493164,238.99000549316406 -120.89800262451172,238.9530029296875 -121.10800170898438,239.01300048828125 C-147.1929931640625,246.08599853515625 -166.14599609375,259.6199951171875 -174.03599548339844,276.8489990234375 C-204.80299377441406,254.2790069580078 -231.9409942626953,226.0019989013672 -253.8000030517578,192.65199279785156z M-87.27300262451172,230.0019989013672 C-97.73899841308594,214.66600036621094 -107.53600311279297,198.28199768066406 -116.49199676513672,181.24099731445312 C-66.76300048828125,169.67999267578125 -9.6850004196167,150.47900390625 53.33300018310547,124.0979995727539 C180.92300415039062,71.46099853515625 299.87799072265625,2.109999895095825 340.86199951171875,-58.55699920654297 C362.2070007324219,37.71500015258789 338.60198974609375,138.3820037841797 278.7099914550781,214.99600219726562 C207.10699462890625,244.41900634765625 129.75100708007812,245.41200256347656 25.514999389648438,229.79800415039062 C-30.67799949645996,219.06500244140625 -74.6259994506836,227.26499938964844 -87.27300262451172,230.0019989013672z M-148.66099548339844,293.68701171875 C-145.3470001220703,279.4859924316406 -113.34100341796875,266.88800048828125 -99.5719985961914,266.7690124511719 C-76.56500244140625,295.2439880371094 -51.38399887084961,319.2030029296875 -25.81100082397461,337.2850036621094 C-69.14099884033203,331.06298828125 -110.98799896240234,316.2720031738281 -148.66099548339844,293.68701171875z M27.05299949645996,340.5450134277344 C-15.11400032043457,316.1199951171875 -40.79100036621094,289.67401123046875 -64.53099822998047,260.5719909667969 C-37.01499938964844,257.6099853515625 -8.60200023651123,258.9809875488281 20.402000427246094,264.70098876953125 C103.00399780273438,277.197998046875 179.13999938964844,274.9020080566406 237.27000427246094,258.8919982910156 C160.33099365234375,326.45098876953125 77.1719970703125,339.63299560546875 27.05299949645996,340.5450134277344z M-121.10800170898438,239.01300048828125 C-121.10800170898438,239.01300048828125 -121.10800170898438,239.01300048828125 -121.10800170898438,239.01300048828125 C-121.2239990234375,239.0570068359375 -121.33200073242188,239.0800018310547 -121.10800170898438,239.01300048828125z"></path></g></g></g></g></g><g clip-path="url(#__lottie_element_19)" transform="matrix(1,0,0,0.9999998211860657,1183.5,395.62896728515625)" opacity="0" style="display: block;"><g clip-path="url(#__lottie_element_49)" transform="matrix(0.01512950100004673,-0.9998855590820312,0.9998855590820312,0.01512950100004673,-404.4625244140625,1101.72021484375)" opacity="1" style="display: block;"><g clip-path="url(#__lottie_element_53)" transform="matrix(1,0,0,1,0,0)" opacity="1" style="display: block;"><g transform="matrix(0.32374998927116394,0,0,0.32374998927116394,833.2887573242188,413.38177490234375)" opacity="1" style="display: block;"><g opacity="1" transform="matrix(1,0,0,1,390.4010009765625,390.40301513671875)"><path fill="rgb(0,55,171)" fill-opacity="1" d=" M-318.135009765625,-226.4510040283203 C-443.0010070800781,-51.027000427246094 -401.86199951171875,193.27200317382812 -226.45599365234375,318.1260070800781 C-51.034000396728516,442.9909973144531 193.26800537109375,401.8689880371094 318.135009765625,226.44500732421875 C443.0010070800781,51.020999908447266 401.8580017089844,-193.2729949951172 226.43600463867188,-318.13800048828125 C51.029998779296875,-442.99200439453125 -193.26800537109375,-401.875 -318.135009765625,-226.4510040283203z M-90.88600158691406,-211.6269989013672 C-43.89899826049805,-213.9759979248047 -2.937999963760376,-189.55499267578125 24.87700080871582,-172.36700439453125 C29.14900016784668,-145.5469970703125 36.57500076293945,-77.58999633789062 40.25,-43.055999755859375 C-0.8420000076293945,-22.663000106811523 -52.270999908447266,23.261999130249023 -69.28700256347656,38.97100067138672 C-100.61100006103516,28.518999099731445 -152.88400268554688,9.711000442504883 -186.802001953125,-9.809000015258789 C-192.68800354003906,-27.76099967956543 -206.00599670410156,-77.61199951171875 -195.23699951171875,-134.4530029296875 C-183.6479949951172,-148.85899353027344 -134.62100219726562,-197.8350067138672 -90.88600158691406,-211.6269989013672z M-310.9169921875,69.84600067138672 C-312.8420104980469,65.18699645996094 -317.52398681640625,51.481998443603516 -326.1419982910156,14.027000427246094 C-328.2120056152344,-25.88800048828125 -323.1400146484375,-66.3219985961914 -310.40399169921875,-105.15799713134766 C-296.2439880371094,-124.947998046875 -282.385986328125,-142.67799377441406 -274.427001953125,-152.6790008544922 C-274.427001953125,-152.6790008544922 -226.572998046875,-131.65699768066406 -226.572998046875,-131.65699768066406 C-232.46600341796875,-93.5780029296875 -231.5449981689453,-29.367000579833984 -216.71400451660156,-3.4210000038146973 C-222.0070037841797,0.9589999914169312 -260.8680114746094,51.10900115966797 -272.0570068359375,92.2509994506836 C-289.9289855957031,85.99800109863281 -305.4100036621094,74.30000305175781 -310.9169921875,69.84600067138672z M-306.93499755859375,109.36799621582031 C-297.04998779296875,115.10399627685547 -285.4169921875,120.5719985961914 -272.74700927734375,123.81999969482422 C-243.97799682617188,187.77200317382812 -191.71600341796875,230.28199768066406 -186.1999969482422,233.12600708007812 C-186.25399780273438,245.35800170898438 -184.48500061035156,258.1889953613281 -182.3300018310547,269.4360046386719 C-184.46800231933594,267.9939880371094 -271.7340087890625,225.0970001220703 -306.93499755859375,109.36799621582031z M72.28800201416016,312.8739929199219 C72.28800201416016,312.8739929199219 63.15800094604492,319.9700012207031 63.15800094604492,319.9700012207031 C-68.7770004272461,339.27301025390625 -144.36099243164062,289.760009765625 -146.61099243164062,287.885009765625 C-148.9980010986328,279.6730041503906 -154.9029998779297,257.5429992675781 -155.69700622558594,237.9929962158203 C-131.56700134277344,237.8520050048828 -88.21900177001953,234.5030059814453 -55.33100128173828,214.72999572753906 C-1.284000039100647,251.0189971923828 57.10900115966797,256.12298583984375 65.98300170898438,257.2359924316406 C68.01899719238281,273.2340087890625 70.75199890136719,298.4309997558594 72.28800201416016,312.8739929199219z M186.83399963378906,147.1219940185547 C132.47500610351562,216.927001953125 82.02799987792969,227.36599731445312 78.78500366210938,227.9969940185547 C69.38600158691406,227.16900634765625 4.3480000495910645,220.39100646972656 -40.07600021362305,188.26300048828125 C-41.53900146484375,177.01600646972656 -50.944000244140625,68.87699890136719 -50.334999084472656,62.88100051879883 C-36.69200134277344,50.27799987792969 22.777999877929688,-3.5399999618530273 61.30099868774414,-19.249000549316406 C83.44599914550781,-12.675000190734863 141.3090057373047,11.755999565124512 175.83999633789062,26.836999893188477 C180.80999755859375,47.91699981689453 191.9290008544922,102.21199798583984 186.83399963378906,147.1219940185547z M304.62701416015625,-59.27799987792969 C304.62701416015625,-59.27799987792969 325.0660095214844,-34.053001403808594 329.6700134277344,-20.481000900268555 C332.61700439453125,32.6150016784668 322.7760009765625,86.66100311279297 299.31500244140625,136.70899963378906 C290.7430114746094,143.67999267578125 267.9960021972656,158.7220001220703 265.73699951171875,160.26400756835938 C244.3979949951172,158.46400451660156 226.5260009765625,149.5 217.68099975585938,144.2480010986328 C221.74000549316406,95.61699676513672 210.39599609375,40.632999420166016 205.197998046875,18.83099937438965 C246.61099243164062,-18.684999465942383 260.25201416015625,-64.69599914550781 262.864013671875,-78.68099975585938 C274.1780090332031,-75.89099884033203 288.7799987792969,-70.49600219726562 304.97601318359375,-60.150001525878906 C304.97601318359375,-60.150001525878906 304.62701416015625,-59.27799987792969 304.62701416015625,-59.27799987792969z M315.2760009765625,-89.5199966430664 C294.8699951171875,-101.52300262451172 276.48699951171875,-107.197998046875 262.7860107421875,-109.83000183105469 C253.9080047607422,-158.6929931640625 199.4320068359375,-206.42999267578125 177.08700561523438,-224.2169952392578 C178.71600341796875,-240.60699462890625 177.16700744628906,-257.7770080566406 174.85899353027344,-272.0740051269531 C290.52801513671875,-206.4239959716797 315.82598876953125,-91.43900299072266 315.2760009765625,-89.5199966430664z M62.553001403808594,-325.1510009765625 C82.80699920654297,-314.08099365234375 127.60800170898438,-289.3590087890625 142.58200073242188,-279.1730041503906 C145.05099487304688,-267.5679931640625 148.12399291992188,-249.06700134277344 147.1750030517578,-231.79200744628906 C106.77100372314453,-228.51499938964844 61.48099899291992,-209.343994140625 39.582000732421875,-199.03500366210938 C12.741000175476074,-215.57699584960938 -29.107999801635742,-240.10499572753906 -78.38500213623047,-242.0760040283203 C-78.38500213623047,-242.0760040283203 -78.49299621582031,-300.4110107421875 -78.49299621582031,-300.4110107421875 C-14.376999855041504,-327.93499755859375 58.24700164794922,-325.9779968261719 62.553001403808594,-325.1510009765625z"></path></g></g></g></g></g><g clip-path="url(#__lottie_element_23)" transform="matrix(1,0,0,0.9999998211860657,1183.5,395.62896728515625)" opacity="0" style="display: block;"><g clip-path="url(#__lottie_element_60)" transform="matrix(0.01512950100004673,-0.9998855590820312,0.9998855590820312,0.01512950100004673,-404.4625244140625,1101.72021484375)" opacity="1" style="display: block;"><g clip-path="url(#__lottie_element_64)" transform="matrix(1,0,0,1,0,0)" opacity="1" style="display: block;"><g transform="matrix(0.32374998927116394,0,0,0.32374998927116394,833.2887573242188,413.38177490234375)" opacity="1" style="display: block;"><g opacity="1" transform="matrix(1,0,0,1,391.07000732421875,391.09698486328125)"><path fill="rgb(0,55,171)" fill-opacity="1" d=" M-0.010999999940395355,-390.4939880371094 C-215.32400512695312,-390.4939880371094 -390.4939880371094,-215.32000732421875 -390.4939880371094,0.0020000000949949026 C-390.4939880371094,215.32000732421875 -215.32400512695312,390.4939880371094 -0.010999999940395355,390.4939880371094 C215.31300354003906,390.4939880371094 390.4939880371094,215.32000732421875 390.4939880371094,0.0020000000949949026 C390.4939880371094,-215.32000732421875 215.31300354003906,-390.4939880371094 -0.010999999940395355,-390.4939880371094z M308.3590087890625,-26.520999908447266 C304.3450012207031,-48.694000244140625 287.093994140625,-162.7209930419922 205.74200439453125,-257.01800537109375 C275.6419982910156,-201.0469970703125 320.8659973144531,-118.14099884033203 328.1929931640625,-26.44700050354004 C323.0589904785156,-26.22599983215332 316.0050048828125,-26.208999633789062 308.3590087890625,-26.520999908447266z M162.7899932861328,-81.33999633789062 C159.6300048828125,-99.69000244140625 131.63900756835938,-270.12298583984375 -30.716999053955078,-327.8580017089844 C-4.205999851226807,-330.3110046386719 22.888999938964844,-329.5639953613281 49.19300079345703,-325.61700439453125 C100.58399963378906,-305.28900146484375 219.76199340820312,-237.27099609375 266.6440124511719,-34.229000091552734 C245.01300048828125,-40.944000244140625 209.50999450683594,-54.55699920654297 162.7899932861328,-81.33999633789062z M-123.01599884033203,-305.5199890136719 C-113.6729965209961,-305.34600830078125 -81.21600341796875,-303.9729919433594 -48.14099884033203,-293.3890075683594 C-234.38299560546875,-207.94200134277344 -305.0480041503906,-63.790000915527344 -327.46600341796875,34.715999603271484 C-344.6210021972656,-125.97200012207031 -248.3979949951172,-255.03500366210938 -123.01599884033203,-305.5199890136719z M-0.24300000071525574,-270.9289855957031 C7.888000011444092,-265.8739929199219 25.115999221801758,-254.04299926757812 45.98400115966797,-233.26199340820312 C-165.14100646972656,-46.834999084472656 -232.70199584960938,156.5780029296875 -244.73500061035156,220.1699981689453 C-268.625,193.5540008544922 -288.343994140625,162.9239959716797 -302.3999938964844,130.43299865722656 C-283.85198974609375,-179.6750030517578 -11.689000129699707,-266.8039855957031 -0.24300000071525574,-270.9289855957031z M70.23200225830078,-203.57000732421875 C85.41200256347656,-180.4510040283203 116.27300262451172,-128.0989990234375 123.22200012207031,-75.39299774169922 C106.58599853515625,-62.17300033569336 61.51499938964844,-24.643999099731445 16.676000595092773,27.660999298095703 C-16.69300079345703,66.58100128173828 -43.61899948120117,106.11900329589844 -63.36899948120117,145.1840057373047 C-85.81800079345703,189.57200622558594 -99.05699920654297,233.56300354003906 -102.77899932861328,276.07598876953125 C-105.06300354003906,276.135986328125 -142.5260009765625,289.5140075683594 -210.37600708007812,253.22500610351562 C-205.78599548339844,220.0189971923828 -184.9219970703125,35.13800048828125 70.23200225830078,-203.57000732421875z M153.8800048828125,291.0989990234375 C121.51599884033203,308.1839904785156 86.21299743652344,319.89898681640625 50.2599983215332,325.4209899902344 C14.036999702453613,314.7279968261719 -43.50600051879883,295.79901123046875 -63.97200012207031,284.5719909667969 C-62.66899871826172,269.3190002441406 -58.39699935913086,234.70700073242188 -44.91699981689453,198.90699768066406 C22.82200050354004,248.5279998779297 91.48799896240234,276.91400146484375 153.8800048828125,291.0989990234375z M201.7729949951172,260.19500732421875 C174.2729949951172,256.87200927734375 77.68499755859375,240.031005859375 -28.027000427246094,161.70399475097656 C-19.365999221801758,144.77200317382812 -0.6899999976158142,110.34500122070312 18.1560001373291,89.06600189208984 C125.98300170898438,134.06500244140625 216.6510009765625,150.093994140625 292.15399169921875,151.95700073242188 C270.26300048828125,193.91799926757812 239.31900024414062,231.031005859375 201.7729949951172,260.19500732421875z M147.3040008544922,-44.73500061035156 C173.51100158691406,-29.101999282836914 257.41900634765625,18.177000045776367 328.9809875488281,13.892999649047852 C327.572998046875,48.018001556396484 320.9429931640625,81.36299896240234 309.2250061035156,113.30400085449219 C269.41900634765625,111.87000274658203 164.77200317382812,103.5250015258789 44.69300079345703,57.215999603271484 C67.28500366210938,31.808000564575195 114.88500213623047,-20.187000274658203 147.3040008544922,-44.73500061035156z"></path></g></g></g></g></g></g></g></svg>